<svg width="119" height="115" viewBox="0 0 119 115" fill="none" xmlns="http://www.w3.org/2000/svg">
<path d="M59 80.8667L85.163 54.7037L118.397 87.9378L98.2444 93.9482L92.234 114.101L59 80.8667Z" fill="#CB0000"/>
<path d="M59.397 80.8667L33.234 54.7037L4.05312e-06 87.9378L20.1525 93.9482L26.163 114.101L59.397 80.8667Z" fill="#CB0000"/>
<path d="M55.5577 3.79136C57.5185 2.73627 59.8782 2.73616 61.8389 3.79136L66.6633 6.38814L66.7595 6.43073C66.8586 6.46634 66.9649 6.47959 67.0707 6.46895L72.522 5.9164L72.9369 5.88691C75.0069 5.80749 77.0051 6.70262 78.3248 8.31989L81.7887 12.5645L81.8618 12.6421C81.9399 12.7128 82.0331 12.7655 82.1349 12.7961L87.3819 14.3718C89.5145 15.0121 91.1827 16.6805 91.823 18.8129L93.3988 24.0611L93.4371 24.1594C93.482 24.2547 93.548 24.339 93.6303 24.4062L97.8749 27.87L98.1895 28.143C99.608 29.4568 100.382 31.3269 100.308 33.2591L100.278 33.6729L99.727 39.1242C99.7127 39.2652 99.7406 39.4078 99.8077 39.5325L102.403 44.3571L102.589 44.7283C103.397 46.4851 103.397 48.5091 102.589 50.2659L102.403 50.6383L99.8077 55.4627C99.7407 55.5873 99.7128 55.7291 99.727 55.87L100.278 61.3213C100.503 63.5367 99.6002 65.7164 97.8749 67.1241L93.6303 70.588C93.5481 70.6551 93.482 70.7396 93.4371 70.8348L93.3988 70.9342L91.823 76.1812C91.1828 78.3138 89.5145 79.9821 87.3819 80.6224L82.1349 82.1981C81.999 82.239 81.8783 82.3198 81.7887 82.4296L78.3248 86.6742C77.0051 88.2917 75.007 89.1866 72.9369 89.1072L72.522 89.0777L67.0707 88.5263C66.965 88.5156 66.8586 88.5278 66.7595 88.5634L66.6633 88.607L61.8389 91.2027C60.0005 92.1921 57.8112 92.2543 55.929 91.3885L55.5577 91.2027L50.7332 88.607C50.6397 88.5567 50.536 88.5281 50.4308 88.523L50.3249 88.5263L44.8736 89.0777C42.797 89.2881 40.7512 88.5084 39.3437 86.9888L39.0707 86.6742L35.6069 82.4296C35.5397 82.3473 35.4554 82.2813 35.3601 82.2364L35.2618 82.1981L30.0136 80.6224C28.0144 80.022 26.4233 78.5182 25.7046 76.5755L25.5725 76.1812L23.9967 70.9342C23.9662 70.8324 23.9134 70.7392 23.8428 70.6611L23.7652 70.588L19.5206 67.1241C17.7954 65.7164 16.8925 63.5366 17.1171 61.3213L17.6696 55.87L17.6718 55.7651C17.6685 55.6948 17.6552 55.6251 17.6314 55.5588L17.5888 55.4627L14.992 50.6383C13.9368 48.6775 13.937 46.3178 14.992 44.3571L17.5888 39.5325L17.6314 39.4354C17.6551 39.3694 17.6684 39.3002 17.6718 39.2301L17.6696 39.1242L17.1171 33.6729C16.8927 31.4576 17.7954 29.2777 19.5206 27.87L23.7652 24.4062L23.8428 24.3341C23.9136 24.2561 23.9661 24.1628 23.9967 24.0611L25.5725 18.8129L25.7046 18.4188C26.4234 16.476 28.0145 14.9721 30.0136 14.3718L35.2618 12.7961C35.3973 12.7553 35.5173 12.6742 35.6069 12.5645L39.0707 8.31989L39.3437 8.00649C40.7512 6.48654 42.7967 5.70602 44.8736 5.9164L50.3249 6.46895C50.4659 6.48323 50.6084 6.45531 50.7332 6.38814L55.5577 3.79136Z" fill="url(#paint0_linear_1955_7973)" stroke="#B17900" stroke-width="5.91753"/>
<path d="M50.2377 42.0556C50.1632 41.1251 49.8142 40.3992 49.1908 39.8781C48.5766 39.3571 47.6414 39.0965 46.3852 39.0965C45.5849 39.0965 44.9289 39.1941 44.4171 39.3896C43.9146 39.5757 43.5424 39.8316 43.3004 40.1573C43.0585 40.483 42.9329 40.8552 42.9236 41.274C42.9049 41.6183 42.9654 41.93 43.105 42.2092C43.2539 42.479 43.4865 42.7256 43.803 42.949C44.1193 43.163 44.5241 43.3584 45.0173 43.5351C45.5105 43.712 46.0967 43.8702 46.7761 44.0098L49.121 44.5122C50.703 44.8472 52.0569 45.2893 53.1828 45.8383C54.3088 46.3874 55.23 47.034 55.9466 47.7785C56.663 48.5136 57.1888 49.3418 57.5238 50.2631C57.8681 51.1842 58.0449 52.1893 58.0542 53.278C58.0449 55.1577 57.575 56.7489 56.6445 58.0517C55.7139 59.3544 54.3832 60.3455 52.6525 61.0248C50.9309 61.7041 48.8604 62.0437 46.441 62.0437C43.9565 62.0437 41.7883 61.6762 39.9365 60.9411C38.0941 60.206 36.661 59.0753 35.6374 57.5492C34.6231 56.0138 34.1113 54.0503 34.1021 51.6588H41.4719C41.5185 52.5336 41.7371 53.2687 42.128 53.8643C42.5188 54.4598 43.0678 54.9111 43.775 55.2182C44.4916 55.5252 45.343 55.6788 46.3293 55.6788C47.1576 55.6788 47.8508 55.5765 48.4091 55.3717C48.9674 55.167 49.3909 54.8832 49.6794 54.5203C49.9678 54.1573 50.1167 53.7433 50.126 53.278C50.1167 52.8407 49.9725 52.4591 49.6932 52.1334C49.4234 51.7985 48.9768 51.5007 48.3533 51.24C47.7299 50.9702 46.8877 50.719 45.8269 50.4864L42.9794 49.8723C40.4483 49.3232 38.4523 48.4066 36.9914 47.1225C35.5397 45.829 34.8185 44.0656 34.8279 41.8323C34.8185 40.0177 35.3024 38.4312 36.2794 37.0726C37.2658 35.7047 38.6291 34.6392 40.3693 33.8762C42.1186 33.1131 44.124 32.7316 46.3852 32.7316C48.693 32.7316 50.689 33.1177 52.3732 33.8901C54.0575 34.6625 55.3556 35.7512 56.2676 37.1563C57.1888 38.5521 57.6541 40.1852 57.6634 42.0556H50.2377ZM75.237 42.0556C75.1626 41.1251 74.8136 40.3992 74.1902 39.8781C73.5761 39.3571 72.6408 39.0965 71.3846 39.0965C70.5843 39.0965 69.9282 39.1941 69.4164 39.3896C68.914 39.5757 68.5418 39.8316 68.2998 40.1573C68.0579 40.483 67.9322 40.8552 67.9229 41.274C67.9043 41.6183 67.9648 41.93 68.1044 42.2092C68.2533 42.479 68.486 42.7256 68.8023 42.949C69.1186 43.163 69.5234 43.3584 70.0167 43.5351C70.5098 43.712 71.0961 43.8702 71.7754 44.0098L74.1204 44.5122C75.7023 44.8472 77.0563 45.2893 78.1822 45.8383C79.3082 46.3874 80.2294 47.034 80.9459 47.7785C81.6625 48.5136 82.1882 49.3418 82.5232 50.2631C82.8675 51.1842 83.0443 52.1893 83.0537 53.278C83.0443 55.1577 82.5744 56.7489 81.6438 58.0517C80.7132 59.3544 79.3826 60.3455 77.6518 61.0248C75.9303 61.7041 73.8598 62.0437 71.4404 62.0437C68.9558 62.0437 66.7876 61.6762 64.9359 60.9411C63.0934 60.206 61.6604 59.0753 60.6368 57.5492C59.6225 56.0138 59.1107 54.0503 59.1014 51.6588H66.4713C66.5178 52.5336 66.7365 53.2687 67.1273 53.8643C67.5182 54.4598 68.0672 54.9111 68.7744 55.2182C69.4909 55.5252 70.3423 55.6788 71.3288 55.6788C72.1569 55.6788 72.8502 55.5765 73.4085 55.3717C73.9669 55.167 74.3902 54.8832 74.6787 54.5203C74.9672 54.1573 75.116 53.7433 75.1253 53.278C75.116 52.8407 74.9718 52.4591 74.6927 52.1334C74.4228 51.7985 73.9761 51.5007 73.3526 51.24C72.7292 50.9702 71.8871 50.719 70.8263 50.4864L67.9787 49.8723C65.4477 49.3232 63.4517 48.4066 61.9907 47.1225C60.5391 45.829 59.8179 44.0656 59.8272 41.8323C59.8179 40.0177 60.3018 38.4312 61.2789 37.0726C62.2653 35.7047 63.6285 34.6392 65.3686 33.8762C67.1181 33.1131 69.1233 32.7316 71.3846 32.7316C73.6923 32.7316 75.6883 33.1177 77.3726 33.8901C79.0569 34.6625 80.355 35.7512 81.267 37.1563C82.1882 38.5521 82.6534 40.1852 82.6627 42.0556H75.237Z" fill="#B17900"/>
<defs>
<linearGradient id="paint0_linear_1955_7973" x1="58.698" y1="5.46103" x2="58.698" y2="89.5335" gradientUnits="userSpaceOnUse">
<stop stop-color="#FFCA1B"/>
<stop offset="1" stop-color="#CB7801"/>
</linearGradient>
</defs>
</svg>
