<svg width="38" height="27" viewBox="0 0 38 27" fill="none" xmlns="http://www.w3.org/2000/svg">
<path d="M18.32 25.76H17.85L7.07 4.3L5.91 17.67C5.84 18.41 5.81 19.1 5.81 19.76C5.81 21.68 6.2 23.16 6.98 24.2C7.76 25.24 9.03 25.96 10.78 26.35V26.96H0V26.35C0.96 26.01 1.81 25.49 2.55 24.8C3.29 24.11 3.85 23.3 4.25 22.38C4.67 21.37 4.98 19.75 5.18 17.54L6.42 3.3C5.92 2.37 5.35 1.69 4.7 1.29C4.05 0.880001 3.24 0.660001 2.25 0.620001V0.0100002H11.81C11.76 0.14 11.72 0.23 11.71 0.27C11.46 0.88 11.33 1.35 11.33 1.69C11.33 2.32 11.67 3.31 12.34 4.65L19.98 19.81L26.3 5.06C26.8 3.88 27.05 2.97 27.05 2.35C27.05 1.73 26.79 0.93 26.26 0H35.76V0.610001C34.44 0.790001 33.49 1.18 32.9 1.77C32.31 2.35 32.01 3.21 32.01 4.35C32.01 4.71 32.03 5.04 32.07 5.36L32.13 5.85L33.79 20.5C33.82 20.7 33.84 20.87 33.86 21.01C33.88 21.15 33.94 21.57 34.05 22.25C34.25 23.53 34.64 24.47 35.22 25.09C35.81 25.71 36.71 26.12 37.93 26.33V26.94H25.37V26.33C26.75 25.99 27.77 25.54 28.42 24.98C29.07 24.42 29.4 23.71 29.4 22.86C29.4 22.53 29.35 21.99 29.26 21.24L27.32 4.38L18.32 25.74V25.76ZM6.75 25.96C6.12 25.28 5.69 24.71 5.46 24.27C5.23 23.83 5.06 23.27 4.94 22.58C4.62 23.37 4.28 24 3.89 24.48C3.51 24.95 2.96 25.45 2.25 25.96H6.75ZM18.02 24.62L19.11 22.05L10.03 3.97C9.58 3.04 9.36 2.36 9.36 1.94C9.36 1.52 9.46 1.14 9.68 0.77H5.14C5.88 1.3 6.43 1.86 6.8 2.45C7.3 3.2 7.73 3.94 8.08 4.68L18.03 24.62H18.02ZM28.15 25.96H34.21L33.18 25.13C32.73 24.77 32.44 24 32.29 22.82L30.12 3.97C30.09 3.63 30.08 3.39 30.08 3.26C30.08 2.96 30.15 2.7 30.28 2.48C30.41 2.26 30.68 1.99 31.09 1.66L32.22 0.77H27.64L30.13 22.55L30.21 22.98C30.24 23.3 30.25 23.53 30.25 23.69C30.25 24.02 30.19 24.28 30.06 24.46C29.94 24.64 29.66 24.89 29.22 25.21L28.15 25.96Z" fill="url(#paint0_linear_9582_4983)"/>
<defs>
<linearGradient id="paint0_linear_9582_4983" x1="18.9576" y1="-8.14002" x2="18.9576" y2="40.36" gradientUnits="userSpaceOnUse">
<stop stop-color="#FFCF02"/>
<stop offset="1" stop-color="#8E5800"/>
</linearGradient>
</defs>
</svg>
